<svg xmlns="http://www.w3.org/2000/svg" xmlns:xlink="http://www.w3.org/1999/xlink" width="2000" zoomAndPan="magnify" viewBox="0 0 1500 1499.999933" height="2000" preserveAspectRatio="xMidYMid meet" version="1.0"><defs><g/><clipPath id="05bc1a56a0"><path d="M 194 59.972656 L 1306 59.972656 L 1306 1439.972656 L 194 1439.972656 Z M 194 59.972656 " clip-rule="nonzero"/></clipPath></defs><g clip-path="url(#05bc1a56a0)"><path fill="#000000" d="M 1296.601562 259.015625 C 1296.601562 259.015625 884.4375 226.714844 749.996094 59.972656 C 615.550781 226.714844 203.386719 259.015625 203.386719 259.015625 C 203.386719 259.015625 177.714844 684.152344 211.667969 818.875 C 333.414062 1305.300781 749.996094 1440.019531 749.996094 1440.019531 C 749.996094 1440.019531 1166.851562 1305.023438 1288.320312 818.875 C 1322.277344 684.152344 1296.601562 259.015625 1296.601562 259.015625 Z M 1296.601562 259.015625 " fill-opacity="1" fill-rule="nonzero"/></g><path fill="#ffcf07" d="M 1234.765625 805.621094 C 1134.828125 1205.640625 827.292969 1350.574219 750.269531 1381.21875 C 672.972656 1350.574219 365.714844 1205.640625 265.777344 805.621094 C 242.863281 713.691406 249.765625 448.945312 256.667969 309.257812 C 362.402344 296.007812 613.066406 253.769531 750.269531 138.375 C 887.476562 253.769531 1138.417969 296.007812 1243.875 309.257812 C 1250.5 448.945312 1257.679688 713.691406 1234.765625 805.621094 Z M 1234.765625 805.621094 " fill-opacity="1" fill-rule="nonzero"/><path fill="#eeb21f" d="M 1234.765625 805.621094 C 1134.828125 1205.640625 827.292969 1350.574219 750.269531 1381.21875 L 750.269531 138.375 C 887.476562 253.769531 1138.417969 296.007812 1243.875 309.257812 C 1250.5 448.945312 1257.679688 713.691406 1234.765625 805.621094 Z M 1234.765625 805.621094 " fill-opacity="1" fill-rule="nonzero"/><g fill="#000000" fill-opacity="1"><g transform="translate(369.867189, 893.541657)"><g><path d="M 231.453125 13.34375 L 11.765625 -46.296875 L 43.15625 -160.84375 L 61.984375 -156.125 L 61.984375 -384.4375 L 155.34375 -384.4375 L 45.5 -414.25 L 76.890625 -528.796875 L 356.984375 -451.921875 L 356.984375 -294.21875 L 295 -276.953125 L 356.984375 -259.703125 L 356.984375 -59.625 Z M 196.140625 -304.421875 L 238.515625 -292.640625 L 238.515625 -361.6875 L 180.453125 -377.375 L 180.453125 -246.359375 Z M 180.453125 -134.15625 L 140.4375 -134.15625 L 238.515625 -107.484375 L 238.515625 -169.46875 L 180.453125 -185.15625 Z M 180.453125 -134.15625 "/></g></g></g><g fill="#000000" fill-opacity="1"><g transform="translate(738.620399, 893.541657)"><g><path d="M 243.21875 1.5625 L 54.921875 -49.421875 L 112.1875 -156.921875 L 309.125 -102.78125 L 203.984375 -228.3125 L 162.40625 -193.796875 L 11.765625 -375.03125 L 76.890625 -430.734375 L 99.640625 -449.5625 L 102 -451.921875 L 186.734375 -523.296875 L 375.03125 -472.3125 L 317.75 -364.828125 L 132.59375 -415.828125 L 223.609375 -305.984375 L 263.625 -341.296875 L 379.734375 -203.984375 L 379.734375 -112.984375 L 338.15625 -78.453125 Z M 243.21875 1.5625 "/></g></g></g><g fill="#000000" fill-opacity="1"><g transform="translate(514.901092, 1142.842034)"><g><path d="M 68.59375 5.796875 L 3 -12 L 10.40625 -40.796875 L 15.40625 -39.40625 L 15.40625 -98 L 39.203125 -98 L 11.203125 -105.59375 L 19.203125 -134.796875 L 95.203125 -114 L 95.203125 -17.203125 L 74.59375 -17.203125 Z M 45.59375 -34.203125 L 34.40625 -34.203125 L 65 -25.796875 L 65 -91 L 45.59375 -96.203125 Z M 45.59375 -34.203125 "/></g></g></g><g fill="#000000" fill-opacity="1"><g transform="translate(613.098475, 1142.842034)"><g><path d="M 38.203125 0 L 3 -9.59375 L 9.203125 -32.796875 L 9.203125 -101.203125 L 26.203125 -101.203125 L 5.40625 -103.203125 L 8.203125 -133.203125 L 88.796875 -125.59375 L 86 -96 L 86 -74.796875 L 73.59375 -66.796875 L 86 -63.40625 L 86 -31.40625 L 93.796875 -29.203125 L 86 0 L 55.796875 -8.203125 L 50.796875 -9.59375 L 55.796875 -28.40625 L 55.796875 -47 L 64.40625 -47 L 39.40625 -53.796875 L 39.40625 -31 L 46 -29.203125 Z M 55.796875 -97.203125 L 68 -97.203125 L 39.40625 -100 L 39.40625 -76.203125 L 55.796875 -71.796875 Z M 55.796875 -97.203125 "/></g></g></g><g fill="#000000" fill-opacity="1"><g transform="translate(709.895902, 1142.842034)"><g><path d="M 38.203125 -0.203125 L 3 -9.796875 L 9.203125 -33 L 9.203125 -100 L 25.796875 -100 L 5 -105.59375 L 13 -134.796875 L 91 -113.40625 L 84.40625 -89.40625 L 84.40625 -31.203125 L 91 -29.40625 L 83.203125 -0.203125 L 48 -9.796875 L 54.203125 -33 L 54.203125 -65.203125 L 50.203125 -50.40625 L 39.40625 -53.40625 L 39.40625 -31.203125 L 46 -29.40625 Z M 39.40625 -75.796875 L 54.203125 -71.796875 L 54.203125 -92.203125 L 39.40625 -96.203125 Z M 39.40625 -75.796875 "/></g></g></g><g fill="#000000" fill-opacity="1"><g transform="translate(803.893407, 1142.842034)"><g><path d="M 38.203125 0 L 3 -9.59375 L 9.203125 -32.796875 L 9.203125 -96.40625 L 26.203125 -96.40625 L 5.40625 -98.40625 L 8.203125 -128.40625 L 88.796875 -120.796875 L 86 -90.59375 L 39.40625 -95.203125 L 39.40625 -70 L 66.203125 -70 L 62.40625 -48.203125 L 39.40625 -48.203125 L 39.40625 -31 L 46 -29.203125 Z M 38.203125 0 "/></g></g></g><g fill="#000000" fill-opacity="1"><g transform="translate(895.690946, 1142.842034)"><g><path d="M 52.203125 0 L 17 -9.59375 L 23.203125 -32.796875 L 23.203125 -94.40625 L 44.59375 -94.40625 L 3 -98.40625 L 5.796875 -128.40625 L 86.40625 -120.796875 L 83.59375 -90.59375 L 53.40625 -93.59375 L 53.40625 -34.796875 L 39.40625 -34.796875 L 60 -29.203125 Z M 52.203125 0 "/></g></g></g></svg>